# 3ds Max Wavefront OBJ Exporter v0.97b - (c)2007 guruware
# File Created: 13.09.2015 13:14:22

mtllib 3d-model.mtl

#
# object Layer0_001
#

v  -479.9375 0.0000 0.7188
v  479.9375 0.0000 0.7188
v  479.9375 408.3750 0.7188
v  -479.9375 408.3750 0.7188
v  479.9375 0.0000 -0.7188
v  -479.9375 0.0000 -0.7188
v  -479.9375 408.3750 -0.7188
v  479.9375 408.3750 -0.7188
# 8 vertices

vn 0.0000 0.0000 1.0000
vn 0.0000 0.0000 -1.0000
vn 0.0000 -1.0000 -0.0000
vn 1.0000 0.0000 -0.0000
vn 0.0000 1.0000 -0.0000
vn -1.0000 0.0000 -0.0000
# 6 vertex normals

vt 0.0107 0.0047 0.0000
vt 0.9706 0.0047 0.0000
vt 0.9706 0.4894 0.0000
vt 0.0107 0.4894 0.0000
vt -0.9877 0.5144 0.0000
vt -0.0278 0.5144 0.0000
vt -0.0278 0.9991 0.0000
vt -0.9877 0.9991 0.0000
vt -0.0298 -0.0904 0.0000
vt -0.0298 -0.0871 0.0000
vt -0.9897 -0.0871 0.0000
vt -0.9897 -0.0904 0.0000
vt -0.0389 0.9595 0.0000
vt -0.0389 0.0109 0.0000
vt -0.0375 0.0109 0.0000
vt -0.0375 0.9595 0.0000
vt 0.0298 -0.0871 0.0000
vt 0.0298 -0.0904 0.0000
vt 0.9897 -0.0904 0.0000
vt 0.9897 -0.0871 0.0000
vt 0.0000 0.0000 0.0000
# 21 texture coords

g Layer0_001
usemtl wire_177028149
s off
f 1/1/1 2/2/1 3/3/1 4/4/1 
f 5/5/2 6/6/2 7/7/2 8/8/2 
f 1/9/3 6/10/3 5/11/3 2/12/3 
f 3/13/4 2/14/4 5/15/4 8/16/4 
f 7/17/5 4/18/5 3/19/5 8/20/5 
f 1/21/6 4/21/6 7/21/6 6/21/6 
# 6 polygons

