<?xml version="1.0" encoding="UTF-8"?>
<svg width="84.667mm" height="167.46mm" version="1.1" viewBox="0 0 299.99999 593.34476" xmlns="http://www.w3.org/2000/svg" xmlns:xlink="http://www.w3.org/1999/xlink">
 <defs>
  <linearGradient id="e" x1="-5865.6" x2="-5865.6" y1="1280.4" y2="2378.9" gradientUnits="userSpaceOnUse" spreadMethod="reflect" xlink:href="#a"/>
  <linearGradient id="a">
   <stop stop-color="#cf0" offset="0"/>
   <stop stop-color="#4e6200" offset="1"/>
  </linearGradient>
  <linearGradient id="f" x1="-5895.5" x2="-5887.9" y1="2445.9" y2="3391" gradientUnits="userSpaceOnUse" spreadMethod="reflect" xlink:href="#a"/>
  <linearGradient id="g" x1="-5840.8" x2="-5865.6" y1="874.11" y2="2743.7" gradientUnits="userSpaceOnUse" spreadMethod="reflect">
   <stop stop-color="#fff" offset="0"/>
   <stop stop-color="#fff" stop-opacity="0" offset="1"/>
  </linearGradient>
 </defs>
 <g transform="matrix(.45293 0 0 .45293 894.31 679.56)">
  <g transform="matrix(.54655 0 0 .54655 1561.1 -2164)">
   <path d="m-6040.2 1214.3c-4.7901 0.035-9.5712 0.3488-14.305 0.9238-51.824 6.2958-84.766 47.818-101.02 84.957-16.25 37.139-23.096 77.145-27.164 115.64-8.1357 76.995-2.7148 149.48-2.7148 149.48a59.221 59.221 0 0 0 75.885 52.535c0.1307 0.9863 0.2584 1.9811 0.3886 2.9687-24.3 8.7368-47.929 18.788-70.436 30.414-139.12 71.867-247.07 211.93-280.6 365.03-26.196 119.61 8.4416 247.99 77.422 343.84 83.016 115.35 213.11 160.15 321.2 209.35-1.0087 43.035-2.4764 86.041-4.3672 129.01-0.097-0.091-0.1837-0.1884-0.2813-0.2793a59.221 59.221 0 0 0 -0.33 -0.3028c-74.232-68.123-191.19-80.782-279.18-19.141-44.461 31.146-67.797 78.356-76.018 127.47-8.2207 49.113 1.1829 111.02 52.881 145.75 0.4414 0.2965 0.4605 0.2941 0.8438 0.5508-0.8982 1.7589-2.0659 3.8525-3.7188 6.3242-13.84 20.697-48.866 47.661-71.387 96.129-5.9214 12.744-10.652 24.414-12.473 40.482-1.8204 16.069 1.9285 43.004 20.941 61.051 19.013 18.047 40.039 19.613 52.928 19.322s22.098-2.6018 30.82-4.9844c17.445-4.7651 32.683-10.958 45.459-15.482 12.336-4.369 23.598-5.9811 18.965-5.9746 42.586-0.2575 88.501 6.4697 137.04 16.566a59.221 59.221 0 0 0 -21.992 24.799c-29.087 61.583-33.065 144.92-19.891 231.05 6.5873 43.069 18.38 85.585 43.494 122.54 25.114 36.96 71.136 67.944 123.49 66.801 34.343-0.7496 66.124-16.499 87.607-37.168 21.484-20.669 34.948-45.105 44.877-69.84 19.859-49.47 26.032-101.99 26.514-144.45 0.1616-14.237 0.2736-24.5 0.4238-37.824 0.1486 13.198 0.2622 23.586 0.4238 37.824 0.4821 42.458 6.6553 94.983 26.514 144.45 9.9292 24.735 23.392 49.171 44.875 69.84s53.264 36.418 87.607 37.168c52.355 1.1427 98.376-29.84 123.49-66.801 25.114-36.96 36.907-79.476 43.494-122.54 12.569-82.176 9.4707-161.75-16.092-222.38 219.49-112.23 317.46-322.56 294.2-518.23-23.36-196.52-168.49-378.59-406.33-436.26-0.3865-0.1-0.7793-0.1915-1.166-0.291 0.2244-8.7126 0.4141-17.449 0.6719-26.135 14.447 8.7515 30.863 15.079 48.072 19.043 44.494 10.249 93.555 12.334 141.18-3.0079 47.623-15.342 94.116-53.696 112.61-110.55 24.475-75.245 8.9826-145.15-4.3125-203.46-12.154-53.299-21.943-97.995-17.049-136.5 9.7787-15.021 16.89-32.045 15.463-55.516-1.8577-30.556-31.982-60.548-55.66-66.699-41.991-10.909-72.571 2.4446-98.75 27.801-15.518 5.6691-30.615 4.9925-51.74-0.7187-14.903-4.0291-31.761-11.274-49.484-19.852 3.4026-27.958 6.9294-55.571 10.686-82.51l71.799-21.225s5.4202-72.487-2.7149-149.48c-4.0676-38.498-10.913-78.503-27.162-115.64-16.249-37.139-49.191-78.661-101.02-84.957-38.045-4.6218-75.345 10.716-99.953 32.463-24.608 21.746-40.395 48.42-52.641 76.129-24.491 55.418-34.712 116.54-35.32 166.69-0.4427 36.49-0.7916 65.868-1.1621 96.881-0.3593-0.031-0.7188-0.056-1.0781-0.086-0.3686-30.881-0.7179-60.336-1.1602-96.795-0.5894-48.583-10.305-107.45-33.07-161.48-11.383-27.015-25.983-53.045-48.205-75.082s-55.373-39.914-92.332-39.646z" fill="#002b00"/>
   <path d="m-6039.8 1273.5c-2.488 0.018-5.0178 0.1814-7.5918 0.4941-98.53 11.97-78.969 287.1-78.969 287.1s52.485-69.639 70.744 12.49c4.0733 28.992 7.943 58.58 11.607 88.688-38.084 10.057-74.689 24.133-108.4 41.549-121.44 62.733-220.69 191.57-249.93 325.09-21.694 99.054 8.4103 214.28 67.641 296.59 76.526 106.34 213.39 147.26 333.33 206.89-2.5481 145.31-9.9452 291.3-22.801 433.95-26.992-14.673-51.938-32.225-73.414-51.959 24.939-52.254 42.641-124.78-8.9941-172.89-51.936-47.662-142.96-57.851-205.17-14.268-53.488 37.469-76.053 140.66-24.094 175.56 81.908 55.016-28.497 123.14-53.578 177.11-35.155 75.658 62.423 11.056 101.49 10.226 79.506-0.673 162 19.143 246.34 40.213-4.1062 33.353-8.5278 66.433-13.293 99.172-18.234 68.282-56.554 36.001-63-13.496-35.031 74.167-35.454 338.7 92.258 335.91 76.249-1.6642 100.26-120.33 101.08-192.93 0.8558-75.376 1.5307-136.31 2.2441-200.27 38.099 8.0146 76.46 14.492 114.98 17.781 0.6616 59.122 1.265 113.8 2.0449 182.48 0.8243 72.597 24.83 191.27 101.08 192.93 127.71 2.7875 127.29-261.74 92.258-335.91-6.4463 49.498-44.764 81.778-62.998 13.496-2.6812-18.421-5.2493-36.957-7.7207-55.58 32.818-4.6933 65.676-12.972 98.512-25.875 403.26-203.62 335.47-740.89-96.59-845.61-15.498-4.0083-31.422-7.9183-47.564-11.898 2.369-126.79 8.2763-251.28 17.297-370.74 27.408 21.634 48.068 50.448 54.514 86.81 11.503 64.893-48.338 150.41 50.641 173.21 72.331 16.661 158.88 3.6154 184.18-74.172 37.441-115.11-45.596-228.66-21.416-344.49 38.172-49.73-18.688-55.089-48.225-21.941-67.194 33.435-137.18-3.1677-199.3-36.199 5.0313-44.25 10.498-87.468 16.394-129.43 18.259-82.129 70.744-12.49 70.744-12.49s19.563-275.13-78.967-287.1c-82.368-10.006-120.56 134.25-121.56 217.22-0.7548 62.218-1.3253 110.57-1.9824 165.21-38.427-9.1044-78.232-12.752-118-11.644-0.6172-51.254-1.1402-95.732-1.8418-153.56-0.9751-80.375-36.843-218.27-113.97-217.71zm182.42 596.37c7.4095 0.01 14.717 0.3988 21.863 1.1953 8.8115 0.9822 17.843 2.4775 26.938 4.461-1.7823 156.46-3.0307 281.87-3.6973 393.07-36.615-10.583-72.567-22.963-105.54-39.037-0.6967-100.35-1.8467-213.79-3.4043-350.73 21.162-5.881 42.906-8.9714 63.844-8.957zm-160.52 62.176c5.6723 77.158 10.037 156.38 13 236.91-8.8813-9.0549-17.097-18.813-24.516-29.387-33.334-47.508-44.835-123.26-15.625-173.4 7.2382-12.427 16.45-23.838 27.141-34.117zm100.72 647.13c32.462 17.096 69.127 30.787 104.71 45.402 0.5552 110.53 1.6814 233.6 3.3164 387.24-35.82 4.7165-73.919 2.1328-111.48-6.3477 1.822-171.78 2.9956-304.94 3.4492-426.3zm192.52 89.133c29.017 19.273 52.492 43.131 65.389 75.705 27.69 69.937 10.62 174.9-46.148 225.19-8.9862-99.122-15.326-199.87-19.24-300.89z" fill="url(#e)"/>
   <path d="m-5690.2 1294c-12.04-0.2167-21.841 4.2315-32.27 13.447-11.918 10.532-23.319 27.804-32.522 48.627-18.405 41.647-28.058 96.96-28.525 135.45-0.7547 62.215-1.3253 110.56-1.9824 165.21a20.477 20.477 0 0 1 -25.193 19.678c-36.534-8.6559-74.572-12.164-112.71-11.102a20.477 20.477 0 0 1 -21.043 -20.221c-0.6172-51.257-1.1402-95.734-1.8418-153.56-0.4523-37.284-9.4901-90.364-26.824-131.5-8.667-20.57-19.423-38.079-30.881-49.442s-22.474-16.638-35.643-16.543c-1.692 0.012-3.4442 0.1237-5.2715 0.3457-15.23 1.8502-27.057 13.655-37.617 37.791s-17.334 58.094-20.924 92.072c-3.6525 34.566-4.2153 68.766-3.9004 94.273 0.318-0.153 0.5922-0.3429 0.914-0.4922 11.448-5.3091 29.149-7.5955 43.48 2.0137 14.332 9.6091 22.191 26.003 27.34 49.162a20.477 20.477 0 0 1 0.289 1.5937c4.0918 29.123 7.9774 58.836 11.656 89.062a20.477 20.477 0 0 1 -15.096 22.272c-36.656 9.6799-71.893 23.237-104.23 39.943-115.33 59.574-211.57 184.53-239.33 311.28-20.137 91.945 8.4006 202.63 64.26 280.25 71.22 98.965 203.68 139.79 325.83 200.52a20.477 20.477 0 0 1 11.357 18.693c-2.5561 145.77-9.9762 292.23-22.881 435.43a20.477 20.477 0 0 1 -30.172 16.15c-28.361-15.417-54.649-33.885-77.488-54.871a20.477 20.477 0 0 1 -4.625 -23.894c11.694-24.504 21.296-53.473 22.234-79.906 0.9371-26.409-5.4903-49.378-26.652-69.127-44.24-40.544-126.24-49.858-179.52-12.535-20.618 14.443-38.136 45.443-43.143 75.354-5.0065 29.91 1.63 54.965 18.717 66.441 23.868 16.031 37.604 37.266 38.742 59.228 1.1387 21.962-8.4065 41.047-19.807 58.096-22.8 34.097-56.272 65.85-65.361 85.412-1.0614 2.2844-1.5537 3.8315-2.2792 5.6992 0.4462-0.1145 0.7652-0.1552 1.2265-0.2812 10.712-2.9259 25.308-8.5745 39.856-13.727 14.547-5.152 28.457-10.239 43.682-10.562a20.477 20.477 0 0 1 0.2617 0c83.027-0.7028 167.02 19.723 251.47 40.822a20.477 20.477 0 0 1 15.359 22.367c-4.1234 33.492-8.5653 66.721-13.354 99.619a20.477 20.477 0 0 1 -0.4805 2.334c-5.1233 19.186-11.592 33.284-22.488 43.389-10.896 10.104-29.034 13.103-41.643 7.4062-4.9965-2.2575-9.2387-5.2389-13.105-8.5684-5.441 38.196-7.0173 88.171-0.2051 132.71 5.4467 35.612 15.937 68.178 30.633 89.805s30.973 32.461 55.838 31.918c13.778-0.3007 24.05-5.2569 34.098-14.924 10.048-9.6669 19.084-24.443 26.172-42.1 14.176-35.313 20.395-81.501 20.783-115.67 0.8558-75.374 1.5308-136.31 2.2442-200.26a20.477 20.477 0 0 1 24.689 -19.809c37.565 7.9021 75.109 14.224 112.51 17.418a20.477 20.477 0 0 1 18.732 20.172c0.6617 59.124 1.2651 113.8 2.045 182.48 0.3879 34.169 6.606 80.357 20.781 115.67 7.0876 17.656 16.126 32.433 26.174 42.1 10.048 9.6669 20.318 14.623 34.096 14.924 24.865 0.5427 41.142-10.291 55.838-31.918s25.186-54.193 30.633-89.805c6.812-44.539 5.2357-94.513-0.2051-132.71-3.8661 3.3287-8.1079 6.3093-13.104 8.5664-12.608 5.6967-30.746 2.6982-41.643-7.4062-10.896-10.104-17.365-24.203-22.488-43.389a20.477 20.477 0 0 1 -0.4805 -2.334c-2.6947-18.514-5.2743-37.136-7.7558-55.836a20.477 20.477 0 0 1 17.398 -22.963c31.1-4.4477 62.093-12.26 93.104-24.369 194.06-98.428 272.47-274.31 252.93-438.71-19.574-164.67-137.55-317.71-346.03-368.24a20.477 20.477 0 0 1 -0.3047 -0.076c-15.332-3.9653-31.185-7.8586-47.34-11.842a20.477 20.477 0 0 1 -15.568 -20.262c2.3762-127.17 8.301-252.04 17.352-371.9a20.477 20.477 0 0 1 33.102 -14.531c30.42 24.012 54.554 57.372 61.988 99.309 7.0864 39.977-6.1925 78.878-7.1817 106.69-0.4945 13.907 1.4415 23.668 6.4336 30.865 4.9922 7.1968 14.248 14.303 35.824 19.273 33.286 7.6673 69.777 8.164 98.854-1.2031s50.633-26.666 61.264-59.35c16.73-51.436 6.7475-104.19-6.2265-161.09-12.974-56.894-29.083-117.44-15.762-181.25a20.477 20.477 0 0 1 3.8007 -8.2832c2.5553-3.3291 4.1524-6.0251 5.4024-8.3867-6.397 1.7155-15.645 5.2916-22.098 12.533a20.477 20.477 0 0 1 -6.166 4.7089c-38.803 19.308-79.262 18.198-116.02 8.2618-36.754-9.9366-70.91-28.173-102.02-44.713a20.477 20.477 0 0 1 -10.732 -20.391c5.0504-44.418 10.54-87.814 16.463-129.97a20.477 20.477 0 0 1 0.2891 -1.5937c5.1488-23.159 13.008-39.553 27.34-49.162 14.332-9.6092 32.032-7.3228 43.48-2.0137 0.3263 0.1513 0.5928 0.3412 0.9141 0.4961 0.3152-25.508-0.248-59.709-3.9004-94.277-3.5901-33.978-10.362-67.939-20.922-92.074s-22.387-35.939-37.617-37.789c-1.8197-0.2211-3.5848-0.348-5.3047-0.3789zm-167.15 555.45a20.477 20.477 0 0 1 0.014 0c8.1076 0.011 16.159 0.4349 24.104 1.3203 9.5545 1.065 19.275 2.6783 29.033 4.8066a20.477 20.477 0 0 1 16.111 20.236c-1.7821 156.45-3.031 281.83-3.6972 392.96a20.477 20.477 0 0 1 -26.16 19.547c-37.272-10.773-74.305-23.474-108.83-40.303a20.477 20.477 0 0 1 -11.504 -18.262c-0.6964-100.3-1.8469-213.71-3.4043-350.64a20.477 20.477 0 0 1 14.992 -19.959c22.866-6.3543 46.378-9.7209 69.34-9.7051zm-159.83 62.19a20.477 20.477 0 0 1 19.717 18.959c5.6911 77.414 10.069 156.88 13.041 237.66a20.477 20.477 0 0 1 -35.078 15.09c-9.6107-9.7986-18.561-20.422-26.66-31.965-37.939-54.072-51.456-135.55-16.557-195.47 8.2971-14.245 18.731-27.119 30.643-38.572a20.477 20.477 0 0 1 14.894 -5.7011zm100.7 647.13a20.477 20.477 0 0 1 8.8613 2.3476c30.825 16.234 66.95 29.792 102.95 44.578a20.477 20.477 0 0 1 12.695 18.836c0.5549 110.47 1.6816 233.5 3.3164 387.13a20.477 20.477 0 0 1 -17.801 20.52c-38.643 5.0881-79.073 2.263-118.66-6.6758a20.477 20.477 0 0 1 -15.965 -20.19c1.8218-171.76 2.9959-304.88 3.4492-426.16a20.477 20.477 0 0 1 21.154 -20.387zm191.65 89.123a20.477 20.477 0 0 1 11.518 3.416c31.265 20.766 58.33 47.926 73.098 85.225 15.666 39.567 18.234 86.625 9.67 131.35s-28.365 87.544-61.279 116.7a20.477 20.477 0 0 1 -33.967 -13.478c-9.0207-99.502-15.382-200.6-19.309-301.95a20.477 20.477 0 0 1 20.27 -21.266z" fill="url(#f)"/>
   <path d="m-6039.8 1273.5c-2.488 0.018-5.0178 0.1814-7.5918 0.4941-98.53 11.97-78.969 287.1-78.969 287.1s52.485-69.639 70.744 12.49c4.0733 28.992 7.9431 58.58 11.608 88.687-38.084 10.057-74.689 24.133-108.4 41.549-121.44 62.733-220.69 191.57-249.93 325.09-21.694 99.054 8.4102 214.28 67.641 296.59 28.004 38.913 64.092 69.062 104.47 94.578h774.14c-57.837-53.784-133.05-95.434-224.65-117.63-15.498-4.0083-31.422-7.9183-47.564-11.898 2.369-126.79 8.2762-251.28 17.297-370.74 27.408 21.634 48.068 50.448 54.514 86.81 11.503 64.893-48.339 150.41 50.641 173.21 72.331 16.661 158.88 3.6154 184.18-74.172 37.441-115.11-45.596-228.66-21.416-344.49 38.172-49.73-18.688-55.089-48.225-21.941-67.194 33.435-137.18-3.1677-199.3-36.199 5.0313-44.25 10.498-87.468 16.394-129.43 18.259-82.129 70.744-12.49 70.744-12.49s19.563-275.13-78.967-287.1c-82.368-10.006-120.56 134.25-121.56 217.22-0.7548 62.218-1.3254 110.57-1.9825 165.21-38.427-9.1044-78.232-12.752-118-11.644-0.6172-51.254-1.1402-95.732-1.8418-153.56-0.9751-80.375-36.843-218.27-113.97-217.71zm182.42 596.37c7.4095 0.01 14.717 0.3988 21.863 1.1953 8.8115 0.9822 17.843 2.4775 26.938 4.461-1.7823 156.46-3.0306 281.87-3.6972 393.07-36.615-10.583-72.567-22.963-105.54-39.037-0.6967-100.35-1.8467-213.79-3.4043-350.73 21.162-5.881 42.906-8.9714 63.844-8.957zm-160.52 62.176c5.6723 77.158 10.037 156.38 13 236.91-8.8813-9.0549-17.097-18.813-24.516-29.387-33.334-47.508-44.835-123.26-15.625-173.4 7.2381-12.427 16.45-23.838 27.141-34.117z" fill="url(#g)"/>
  </g>
 </g>
</svg>
