# Blender v2.79 (sub 0) OBJ File: 'Dolar.blend'
# www.blender.org
mtllib Dolar.mtl
o Plane
v -0.284833 0.000000 0.627305
v 0.284833 0.000000 0.627305
v -0.284833 0.000000 -0.627305
v 0.284833 0.000000 -0.627305
v -0.284833 0.008995 -0.627305
v -0.284833 0.008995 0.627305
v 0.284833 0.008995 0.627305
v 0.284833 0.008995 -0.627305
vt 0.008985 0.985596
vt 0.987749 0.985596
vt 0.989925 0.564156
vt 0.011161 0.564155
vt 0.008985 0.985596
vt 0.011161 0.564155
vt 0.989925 0.564156
vt 0.987749 0.985596
vn 0.0000 -1.0000 0.0000
vn 0.0000 1.0000 0.0000
vn -1.0000 0.0000 0.0000
vn 0.0000 0.0000 -1.0000
vn 0.0000 0.0000 1.0000
vn 1.0000 0.0000 0.0000
usemtl None
s off
f 1/1/1 3/2/1 4/3/1 2/4/1
f 6/5/2 7/6/2 8/7/2 5/8/2
f 3/2/3 1/1/3 6/5/3 5/8/3
f 4/3/4 3/2/4 5/8/4 8/7/4
f 1/1/5 2/4/5 7/6/5 6/5/5
f 2/4/6 4/3/6 8/7/6 7/6/6
